<svg xmlns="http://www.w3.org/2000/svg" version="1.1" xmlns:xlink="http://www.w3.org/1999/xlink" xmlns:svgjs="http://svgjs.dev/svgjs" width="128" height="128" viewBox="0 0 128 128"><g transform="matrix(0.8046875,0,0,0.8046875,12.41184074821259,12.814873242367177)"><svg viewBox="0 0 98 98" data-background-color="#ffffff" preserveAspectRatio="xMidYMid meet" height="127" width="128" xmlns="http://www.w3.org/2000/svg" xmlns:xlink="http://www.w3.org/1999/xlink"><g id="tight-bounds" transform="matrix(1,0,0,1,0.08387967645792571,0.08387967645792571)"><svg viewBox="0 0 97.83224064708413 97.83224064708413" height="97.83224064708413" width="97.83224064708413"><rect width="97.83224064708413" height="97.83224064708413" fill="url(#e26db800-3300-4c77-bbfd-85ac97ec9cbf)" mask="url(#8c135b57-151b-45ad-a652-9e9bed657083)" data-fill-palette-color="tertiary"></rect><g><svg></svg></g><g><svg viewBox="0 0 97.83224064708413 97.83224064708413" height="97.83224064708413" width="97.83224064708413"><g><path d="M0 48.916c0-27.016 21.9-48.916 48.916-48.916 27.016 0 48.916 21.9 48.916 48.916 0 27.016-21.9 48.916-48.916 48.916-27.016 0-48.916-21.9-48.916-48.916zM48.916 93.244c24.481 0 44.328-19.846 44.328-44.328 0-24.481-19.846-44.328-44.328-44.327-24.481 0-44.328 19.846-44.327 44.327 0 24.481 19.846 44.328 44.327 44.328z" data-fill-palette-color="tertiary" fill="url(#e26db800-3300-4c77-bbfd-85ac97ec9cbf)" stroke="transparent"></path><ellipse rx="46.959475510600384" ry="46.959475510600384" cx="48.91612032354207" cy="48.91612032354207" fill="url(#e26db800-3300-4c77-bbfd-85ac97ec9cbf)" stroke="transparent" stroke-width="0" fill-opacity="1" data-fill-palette-color="tertiary"></ellipse></g><g transform="matrix(1,0,0,1,28.543919643391938,23.475393915029336)"><svg viewBox="0 0 40.74440136030026 50.88145281702546" height="50.88145281702546" width="40.74440136030026"><g><svg viewBox="0 0 40.74440136030026 50.88145281702546" height="50.88145281702546" width="40.74440136030026"><g><svg viewBox="0 0 40.74440136030026 50.88145281702546" height="50.88145281702546" width="40.74440136030026"><g id="textblocktransform"><svg viewBox="0 0 40.74440136030026 50.88145281702546" height="50.88145281702546" width="40.74440136030026" id="textblock"><g><svg viewBox="0 0 40.74440136030026 50.88145281702546" height="50.88145281702546" width="40.74440136030026"><g><svg viewBox="0 0 40.74440136030026 50.88145281702546" height="50.88145281702546" width="40.74440136030026"><g><svg xmlns="http://www.w3.org/2000/svg" xmlns:xlink="http://www.w3.org/1999/xlink" version="1.0" x="0" y="0" viewBox="15.3186149770807 5.506876686966101 71.70884022026621 89.54972581303389" enable-background="new 0 0 100 100" xml:space="preserve" height="50.88145281702546" width="40.74440136030026" class="icon-icon-0" data-fill-palette-color="quaternary" id="icon-0"><path d="M76.14 54.436c6.345-4.808 10.495-11.811 10.861-19.651C87.733 19.211 73.455 6.04 55.151 5.518 37.701 5.1 22.935 16.807 22.081 31.754c-0.122 2.195 0 4.39 0.488 6.48 0.244 0.941 0 1.986-0.61 2.822-1.586 2.509-5.003 7.839-6.467 12.23-0.976 3.031 2.196 3.136 9.03 3.345l0.732 9.616c0.122 6.899 4.149 9.93 12.691 8.989l2.44-0.104c1.342-0.105 2.441 0.836 2.319 1.986l5.394 17.939 31.639-11.444c0 0-5.794-13.394-6.282-18.411C71.885 58.235 76.14 54.436 76.14 54.436zM71.357 48.799c-10.063 8.798-16.869-0.4-16.87-0.4-1.487 0.972-3.488 0.743-5.203 0.514-1.944-0.229-3.888-0.972-5.089-2.573-0.629-0.858-0.972-1.83-1.087-2.859-5.09 2.001-12.409 0.572-14.753-4.746-1.773-3.946-1.029-11.437 3.259-13.724 0.343-2.516 1.029-4.746 3.145-6.405 2.116-1.601 4.689-2.516 7.377-2.344 3.66-4.232 10.808-4.746 15.782-2.631 2.745-1.315 5.604-1.144 8.464 0.115 3.202 1.372 5.318 3.088 6.404 5.889 5.204 2.173 7.606 7.319 6.977 12.981-0.229 2.173-0.686 4.289-1.945 5.947C78.218 43.252 75.531 47.255 71.357 48.799z" fill="#ffffff" data-fill-palette-color="quaternary"></path><path d="M62.485 36.056c-0.951-0.633-2.232-0.375-2.863 0.574-0.187 0.277-0.288 0.582-0.325 0.893l-0.004-0.004-0.514 4.096 3.576-2.055c0.273-0.153 0.517-0.364 0.701-0.641C63.688 37.969 63.432 36.688 62.485 36.056z" fill="#ffffff" data-fill-palette-color="quaternary"></path><path d="M64.095 33.679c1.004 0.676 2.365 0.409 3.041-0.595 0.677-1.005 5.104-9.336 4.101-10.012-1.005-0.675-7.059 6.56-7.735 7.565C62.826 31.641 63.092 33.002 64.095 33.679z" fill="#ffffff" data-fill-palette-color="quaternary"></path><path d="M58.249 32.148c3.363-0.826 6-3.817 4.353-8.12-1.645-4.304-11.326-10.461-17.067-2.576-5.744 7.881-2.034 19.297 2.31 20.321 4.35 1.03 5.893-2.419 5.703-4.994C53.548 36.779 53.322 33.352 58.249 32.148zM48.731 27.376c-0.649-0.659-0.706-1.646-0.135-2.208 0.571-0.562 1.555-0.49 2.205 0.17 0.649 0.659 0.712 1.649 0.14 2.212C50.371 28.112 49.381 28.035 48.731 27.376zM55.241 26.836c-0.974-0.989-1.031-2.506-0.13-3.393 0.899-0.885 2.416-0.806 3.389 0.182 0.973 0.988 1.03 2.505 0.131 3.391C57.73 27.903 56.214 27.824 55.241 26.836z" fill="#ffffff" data-fill-palette-color="quaternary"></path></svg></g></svg></g></svg></g></svg></g></svg></g><g></g></svg></g></svg></g></svg></g><defs></defs><mask id="8c135b57-151b-45ad-a652-9e9bed657083"><g id="SvgjsG1991"><svg viewBox="0 0 97.83224064708413 97.83224064708413" height="97.83224064708413" width="97.83224064708413"><g><svg></svg></g><g><svg viewBox="0 0 97.83224064708413 97.83224064708413" height="97.83224064708413" width="97.83224064708413"><g><path d="M0 48.916c0-27.016 21.9-48.916 48.916-48.916 27.016 0 48.916 21.9 48.916 48.916 0 27.016-21.9 48.916-48.916 48.916-27.016 0-48.916-21.9-48.916-48.916zM48.916 93.244c24.481 0 44.328-19.846 44.328-44.328 0-24.481-19.846-44.328-44.328-44.327-24.481 0-44.328 19.846-44.327 44.327 0 24.481 19.846 44.328 44.327 44.328z" fill="white" stroke="transparent"></path><ellipse rx="46.959475510600384" ry="46.959475510600384" cx="48.91612032354207" cy="48.91612032354207" fill="white" stroke="transparent" stroke-width="0" fill-opacity="1"></ellipse></g><g transform="matrix(1,0,0,1,28.543919643391938,23.475393915029336)"><svg viewBox="0 0 40.74440136030026 50.88145281702546" height="50.88145281702546" width="40.74440136030026"><g><svg viewBox="0 0 40.74440136030026 50.88145281702546" height="50.88145281702546" width="40.74440136030026"><g><svg viewBox="0 0 40.74440136030026 50.88145281702546" height="50.88145281702546" width="40.74440136030026"><g id="SvgjsG1990"><svg viewBox="0 0 40.74440136030026 50.88145281702546" height="50.88145281702546" width="40.74440136030026" id="SvgjsSvg1989"><g><svg viewBox="0 0 40.74440136030026 50.88145281702546" height="50.88145281702546" width="40.74440136030026"><g><svg viewBox="0 0 40.74440136030026 50.88145281702546" height="50.88145281702546" width="40.74440136030026"><g><svg xmlns="http://www.w3.org/2000/svg" xmlns:xlink="http://www.w3.org/1999/xlink" version="1.0" x="0" y="0" viewBox="15.3186149770807 5.506876686966101 71.70884022026621 89.54972581303389" enable-background="new 0 0 100 100" xml:space="preserve" height="50.88145281702546" width="40.74440136030026" class="icon-icon-0" data-fill-palette-color="quaternary" id="SvgjsSvg1988"></svg></g></svg></g></svg></g></svg></g></svg></g><g></g></svg></g></svg></g></svg></g><defs><mask></mask></defs></svg></g></mask><linearGradient x1="0.054" x2="0.941" y1="0.5" y2="0.5" id="e26db800-3300-4c77-bbfd-85ac97ec9cbf"><stop stop-color="#0f3054" offset="0"></stop><stop stop-color="#3b8dcb" offset="0.498"></stop><stop stop-color="#0f3054" offset="1"></stop></linearGradient></svg><rect width="97.83224064708413" height="97.83224064708413" fill="none" stroke="none" visibility="hidden"></rect></g></svg></g></svg>