<svg xmlns="http://www.w3.org/2000/svg" version="1.1" xmlns:xlink="http://www.w3.org/1999/xlink" xmlns:svgjs="http://svgjs.dev/svgjs" width="1000" height="1000" viewBox="0 0 1000 1000"><rect width="1000" height="1000" fill="#ffffff"></rect><g transform="matrix(0.7,0,0,0.7,149.90044910179654,149.90044910179637)"><svg viewBox="0 0 334 334" data-background-color="#ffffff" preserveAspectRatio="xMidYMid meet" height="1000" width="1000" xmlns="http://www.w3.org/2000/svg" xmlns:xlink="http://www.w3.org/1999/xlink"><g id="tight-bounds" transform="matrix(1,0,0,1,0.04749999999998522,0.04750000000001364)"><svg viewBox="0 0 333.90454557049503 333.90454557049503" height="333.90454557049503" width="333.90454557049503"><rect width="333.905" height="333.905" fill="url(#ddb35d2a-2bd8-4c19-9316-4dcad55b2201)" mask="url(#823f49b2-07d5-4a61-a3f7-7f447a962383)" data-fill-palette-color="tertiary"></rect><g><svg></svg></g><g><svg viewBox="0 0 333.90454557049503 333.90454557049503" height="333.90454557049503" width="333.90454557049503"><g><path d="M0 166.952c0-92.205 74.747-166.952 166.952-166.952 92.205 0 166.952 74.747 166.953 166.952 0 92.205-74.747 166.952-166.953 166.953-92.205 0-166.952-74.747-166.952-166.953zM166.952 326.819c88.292 0 159.867-71.575 159.867-159.867 0-88.292-71.575-159.867-159.867-159.867-88.292 0-159.867 71.575-159.867 159.867 0 88.292 71.575 159.867 159.867 159.867z" data-fill-palette-color="tertiary" fill="url(#ddb35d2a-2bd8-4c19-9316-4dcad55b2201)" stroke="transparent"></path><ellipse rx="160.27418187383762" ry="160.27418187383762" cx="166.95227278524752" cy="166.95227278524752" fill="url(#ddb35d2a-2bd8-4c19-9316-4dcad55b2201)" stroke="transparent" stroke-width="0" fill-opacity="1" data-fill-palette-color="tertiary"></ellipse></g><g transform="matrix(1,0,0,1,105.76445214695435,71.17305217166896)"><svg viewBox="0 0 122.37564127658632 191.55844122715712" height="191.55844122715712" width="122.37564127658632"><g><svg viewBox="0 0 122.37564127658632 191.55844122715712" height="191.55844122715712" width="122.37564127658632"><g><svg viewBox="0 0 213.1584412271571 333.6636140161097" height="191.55844122715712" width="122.37564127658632"><g transform="matrix(1,0,0,1,0,196.81337216317155)"><svg viewBox="0 0 213.1584412271571 136.85024185293818" height="136.85024185293818" width="213.1584412271571"><g id="textblocktransform"><svg viewBox="0 0 213.1584412271571 136.85024185293818" height="136.85024185293818" width="213.1584412271571" id="textblock"><g><svg viewBox="0 0 213.1584412271571 136.85024185293818" height="136.85024185293818" width="213.1584412271571"><g transform="matrix(1,0,0,1,0,0)"><svg width="213.1584412271571" viewBox="2.2 -35.2 69.27358208955224 47.35" height="136.85024185293818" data-palette-color="#ffffff"><path d="M8.05-22.45Q8.05-22.2 7.93-21.28 7.8-20.35 7.8-19.8L7.8-19.8Q7.8-19.4 7.9-19.3L7.9-19.3 9.35-20.7Q10.15-21.6 10.75-22.1L10.75-22.1Q12.05-23.3 13.4-23.3L13.4-23.3Q14.5-23.3 15.05-22.45L15.05-22.45Q15.35-21.95 15.35-21.3L15.35-21.3Q15.35-20.8 15.15-20.55L15.15-20.55Q14.4-19.4 12.45-17.1L12.45-17.1Q11.7-16.3 11.7-15.55L11.7-15.55Q11.7-14.85 12.4-14L12.4-14Q13-13.3 14.1-11.9L14.1-11.9Q16.25-9.15 17.93-7.48 19.6-5.8 21.8-4.7L21.8-4.7Q22.05-4.6 22.2-4.23 22.35-3.85 22.3-3.65L22.3-3.65Q22.25-3.4 21.9-3.15 21.55-2.9 21.3-2.95L21.3-2.95Q20.55-3.15 20.05-3.2L20.05-3.2Q17.45-3.7 16.35-4.45L16.35-4.45Q14.55-5.7 11.25-8.8L11.25-8.8Q9.25-10.65 9.2-10.7L9.2-10.7 8.3-11.55Q7.25-12.6 7.25-12.6L7.25-12.6Q7.15-12.35 7.15-11.85L7.15-11.85Q7.15-11.4 7.23-10.88 7.3-10.35 7.25-10.15L7.25-10.15Q6.95-4.55 6.85-1.95L6.85-1.95Q6.75-0.3 6.08 0.55 5.4 1.4 4.2 1.2L4.2 1.2Q3.8 1.15 3.33 0.8 2.85 0.45 2.75 0.1L2.75 0.1Q2.2-2.1 2.2-4.2L2.2-4.2Q2.2-10.25 2.35-16.25L2.35-16.25 2.85-32.55Q2.9-35.2 5.6-35.2L5.6-35.2Q7.45-35.2 8.3-34.5 9.15-33.8 9.05-32.3L9.05-32.3 8.55-27.2Q8.35-25.45 8.05-22.45L8.05-22.45ZM35.8-3.35Q34.25-2.4 32.25-2.4L32.25-2.4Q30.05-2.4 28.02-3.53 26-4.65 24.8-6.75 23.6-8.85 23.8-11.55L23.8-11.55 24.05-12.75Q24.35-14.55 24.55-15.4L24.55-15.4Q25-17.25 26.35-18 27.7-18.75 29.95-19.2L29.95-19.2Q31.4-19.5 32.8-19.5L32.8-19.5Q37.2-19.5 40.2-16.55L40.2-16.55Q41.8-14.95 41.8-12.65L41.8-12.65Q41.8-10.4 40.15-7.8L40.15-7.8Q38.25-4.85 35.8-3.35L35.8-3.35ZM31.6-16.95Q30.8-15 29.9-12.1L29.9-12.1 29.4-10.6 29.75-10.45Q29.75-10.1 29.77-9.38 29.8-8.65 29.95-8.15L29.95-8.15Q30.5-6.6 31.2-6.25L31.2-6.25Q31.5-6.1 32.07-6.4 32.65-6.7 33.1-7.1L33.1-7.1Q33.8-7.7 35.35-9.6L35.35-9.6Q36.5-10.9 36.5-12.7L36.5-12.7Q36.5-14.25 35.62-15.5 34.75-16.75 33.2-17.2L33.2-17.2Q33.05-17.25 32.65-17.25L32.65-17.25Q31.7-17.25 31.6-16.95L31.6-16.95ZM53.25-15.7Q53.25-13.9 53.42-13.35 53.6-12.8 54.3-12.8L54.3-12.8Q54.95-12.8 56.35-13.1L56.35-13.1 57.5-13.1Q60.35-13.1 61-11.85L61-11.85Q61.25-11.75 61.5-11.33 61.75-10.9 61.85-10.75L61.85-10.75Q61.65-10.6 61.25-10.28 60.85-9.95 60.5-9.9L60.5-9.9Q59.35-9.65 57.05-9.25L57.05-9.25Q56.6-9.2 55.45-9L55.45-9Q53.65-8.65 53.65-6.9L53.65-6.9Q53.65-6.65 53.75-5.95L53.75-5.95Q54.35-3.25 54.75-1.23 55.15 0.8 55.4 2.15L55.4 2.15 56.3 6.55Q56.8 8.95 56.8 10.25L56.8 10.25Q56.8 11.2 56.35 11.68 55.9 12.15 54.6 12.15L54.6 12.15Q53.5 12.15 52.95 11.6 52.4 11.05 52.15 9.85L52.15 9.85Q51.7 7.55 50.6 2.95L50.6 2.95 49-5.35Q48.9-8.25 46.15-8.25L46.15-8.25Q45.25-8.25 44.9-8.55L44.9-8.55Q44.6-8.8 44.35-9.13 44.1-9.45 44.1-9.75L44.1-9.75Q44.1-10 44.42-10.33 44.75-10.65 45.05-10.7L45.05-10.7Q46.85-10.95 47.47-11.7 48.1-12.45 48.15-14.05L48.15-14.05 48.25-17.25Q48.3-19.35 48.4-21.55 48.5-23.75 48.75-25.45L48.75-25.45Q48.95-26.9 50-27.58 51.05-28.25 52.9-28.25L52.9-28.25Q53.7-28.25 54.15-28.2L54.15-28.2Q55.2-28.1 56.55-27.23 57.9-26.35 58-25.35L58-25.35Q58.5-22.5 55.9-22.25L55.9-22.25Q54.2-22.6 53.9-21.85 53.6-21.1 53.5-20L53.5-20Q53.5-19.35 53.4-18.15L53.4-18.15Q53.25-16.95 53.25-15.7L53.25-15.7ZM68.89-23.3Q68.79-23 68.17-22.65 67.54-22.3 67.14-22L67.14-22 65.74-22.75Q63.69-23.85 62.94-24.5L62.94-24.5Q62.54-24.8 62.54-25.25L62.54-25.25Q62.54-25.55 62.77-25.78 62.99-26 63.44-26L63.44-26Q65.39-26 68.19-25L68.19-25Q68.49-24.95 68.74-24.33 68.99-23.7 68.89-23.3L68.89-23.3ZM64.39-14Q64.54-14.65 64.59-14.95 64.64-15.25 64.64-15.6L64.64-15.6Q64.64-16.3 65.07-16.7 65.49-17.1 66.69-17.1L66.69-17.1Q68.09-17.1 69.17-16.23 70.24-15.35 70.49-13.95L70.49-13.95Q70.64-13.25 70.69-12.4 70.74-11.55 70.74-11.3L70.74-11.3 71.44-2.75Q71.59-1.4 71.07-0.68 70.54 0.05 69.09 0.05L69.09 0.05Q67.84 0.05 66.97-0.65 66.09-1.35 65.89-2.45L65.89-2.45 64.59-13.05 64.39-14Z" opacity="1" transform="matrix(1,0,0,1,0,0)" fill="#ffffff" class="wordmark-text-0" data-fill-palette-color="quaternary" id="text-0"></path></svg></g></svg></g></svg></g></svg></g><g transform="matrix(1,0,0,1,40.713262274387006,0)"><svg viewBox="0 0 131.7319166783831 164.5063144674973" height="164.5063144674973" width="131.7319166783831"><g><svg xmlns="http://www.w3.org/2000/svg" xmlns:xlink="http://www.w3.org/1999/xlink" version="1.0" x="0" y="0" viewBox="15.3186149770807 5.506876686966101 71.70884022026621 89.54972581303389" enable-background="new 0 0 100 100" xml:space="preserve" height="164.5063144674973" width="131.7319166783831" class="icon-icon-0" data-fill-palette-color="quaternary" id="icon-0"><path d="M76.14 54.436c6.345-4.808 10.495-11.811 10.861-19.651C87.733 19.211 73.455 6.04 55.151 5.518 37.701 5.1 22.935 16.807 22.081 31.754c-0.122 2.195 0 4.39 0.488 6.48 0.244 0.941 0 1.986-0.61 2.822-1.586 2.509-5.003 7.839-6.467 12.23-0.976 3.031 2.196 3.136 9.03 3.345l0.732 9.616c0.122 6.899 4.149 9.93 12.691 8.989l2.44-0.104c1.342-0.105 2.441 0.836 2.319 1.986l5.394 17.939 31.639-11.444c0 0-5.794-13.394-6.282-18.411C71.885 58.235 76.14 54.436 76.14 54.436zM71.357 48.799c-10.063 8.798-16.869-0.4-16.87-0.4-1.487 0.972-3.488 0.743-5.203 0.514-1.944-0.229-3.888-0.972-5.089-2.573-0.629-0.858-0.972-1.83-1.087-2.859-5.09 2.001-12.409 0.572-14.753-4.746-1.773-3.946-1.029-11.437 3.259-13.724 0.343-2.516 1.029-4.746 3.145-6.405 2.116-1.601 4.689-2.516 7.377-2.344 3.66-4.232 10.808-4.746 15.782-2.631 2.745-1.315 5.604-1.144 8.464 0.115 3.202 1.372 5.318 3.088 6.404 5.889 5.204 2.173 7.606 7.319 6.977 12.981-0.229 2.173-0.686 4.289-1.945 5.947C78.218 43.252 75.531 47.255 71.357 48.799z" fill="#ffffff" data-fill-palette-color="quaternary"></path><path d="M62.485 36.056c-0.951-0.633-2.232-0.375-2.863 0.574-0.187 0.277-0.288 0.582-0.325 0.893l-0.004-0.004-0.514 4.096 3.576-2.055c0.273-0.153 0.517-0.364 0.701-0.641C63.688 37.969 63.432 36.688 62.485 36.056z" fill="#ffffff" data-fill-palette-color="quaternary"></path><path d="M64.095 33.679c1.004 0.676 2.365 0.409 3.041-0.595 0.677-1.005 5.104-9.336 4.101-10.012-1.005-0.675-7.059 6.56-7.735 7.565C62.826 31.641 63.092 33.002 64.095 33.679z" fill="#ffffff" data-fill-palette-color="quaternary"></path><path d="M58.249 32.148c3.363-0.826 6-3.817 4.353-8.12-1.645-4.304-11.326-10.461-17.067-2.576-5.744 7.881-2.034 19.297 2.31 20.321 4.35 1.03 5.893-2.419 5.703-4.994C53.548 36.779 53.322 33.352 58.249 32.148zM48.731 27.376c-0.649-0.659-0.706-1.646-0.135-2.208 0.571-0.562 1.555-0.49 2.205 0.17 0.649 0.659 0.712 1.649 0.14 2.212C50.371 28.112 49.381 28.035 48.731 27.376zM55.241 26.836c-0.974-0.989-1.031-2.506-0.13-3.393 0.899-0.885 2.416-0.806 3.389 0.182 0.973 0.988 1.03 2.505 0.131 3.391C57.73 27.903 56.214 27.824 55.241 26.836z" fill="#ffffff" data-fill-palette-color="quaternary"></path></svg></g></svg></g><g></g></svg></g></svg></g></svg></g></svg></g><defs></defs><mask id="823f49b2-07d5-4a61-a3f7-7f447a962383"><g id="SvgjsG1259"><svg viewBox="0 0 333.90454557049503 333.90454557049503" height="333.90454557049503" width="333.90454557049503"><g><svg></svg></g><g><svg viewBox="0 0 333.90454557049503 333.90454557049503" height="333.90454557049503" width="333.90454557049503"><g><path d="M0 166.952c0-92.205 74.747-166.952 166.952-166.952 92.205 0 166.952 74.747 166.953 166.952 0 92.205-74.747 166.952-166.953 166.953-92.205 0-166.952-74.747-166.952-166.953zM166.952 326.819c88.292 0 159.867-71.575 159.867-159.867 0-88.292-71.575-159.867-159.867-159.867-88.292 0-159.867 71.575-159.867 159.867 0 88.292 71.575 159.867 159.867 159.867z" fill="white" stroke="transparent"></path><ellipse rx="160.27418187383762" ry="160.27418187383762" cx="166.95227278524752" cy="166.95227278524752" fill="white" stroke="transparent" stroke-width="0" fill-opacity="1"></ellipse></g><g transform="matrix(1,0,0,1,105.76445214695435,71.17305217166896)"><svg viewBox="0 0 122.37564127658632 191.55844122715712" height="191.55844122715712" width="122.37564127658632"><g><svg viewBox="0 0 122.37564127658632 191.55844122715712" height="191.55844122715712" width="122.37564127658632"><g><svg viewBox="0 0 213.1584412271571 333.6636140161097" height="191.55844122715712" width="122.37564127658632"><g transform="matrix(1,0,0,1,0,196.81337216317155)"><svg viewBox="0 0 213.1584412271571 136.85024185293818" height="136.85024185293818" width="213.1584412271571"><g id="SvgjsG1258"><svg viewBox="0 0 213.1584412271571 136.85024185293818" height="136.85024185293818" width="213.1584412271571" id="SvgjsSvg1257"><g><svg viewBox="0 0 213.1584412271571 136.85024185293818" height="136.85024185293818" width="213.1584412271571"><g transform="matrix(1,0,0,1,0,0)"><svg width="213.1584412271571" viewBox="2.2 -35.2 69.27358208955224 47.35" height="136.85024185293818" data-palette-color="#ffffff"></svg></g></svg></g></svg></g></svg></g><g transform="matrix(1,0,0,1,40.713262274387006,0)"><svg viewBox="0 0 131.7319166783831 164.5063144674973" height="164.5063144674973" width="131.7319166783831"><g><svg xmlns="http://www.w3.org/2000/svg" xmlns:xlink="http://www.w3.org/1999/xlink" version="1.0" x="0" y="0" viewBox="15.3186149770807 5.506876686966101 71.70884022026621 89.54972581303389" enable-background="new 0 0 100 100" xml:space="preserve" height="164.5063144674973" width="131.7319166783831" class="icon-icon-0" data-fill-palette-color="quaternary" id="SvgjsSvg1255"></svg></g></svg></g><g></g></svg></g></svg></g></svg></g></svg></g><defs><mask></mask></defs></svg></g></mask><linearGradient x1="0.054" x2="0.941" y1="0.5" y2="0.5" id="ddb35d2a-2bd8-4c19-9316-4dcad55b2201"><stop stop-color="#0f3054" offset="0"></stop><stop stop-color="#3b8dcb" offset="0.498"></stop><stop stop-color="#0f3054" offset="1"></stop></linearGradient></svg><rect width="333.90454557049503" height="333.90454557049503" fill="none" stroke="none" visibility="hidden"></rect></g></svg></g></svg>